<?xml version="1.0" standalone="no"?>
<!DOCTYPE svg PUBLIC "-//W3C//DTD SVG 20010904//EN"
 "http://www.w3.org/TR/2001/REC-SVG-20010904/DTD/svg10.dtd">
<svg version="1.0" xmlns="http://www.w3.org/2000/svg"
 width="512.000000pt" height="512.000000pt" viewBox="0 0 512.000000 512.000000"
 preserveAspectRatio="xMidYMid meet">

<g transform="translate(0.000000,512.000000) scale(0.100000,-0.100000)"
fill="#000000" stroke="none">
<path d="M2300 4949 c-538 -48 -1053 -249 -1455 -568 -94 -74 -273 -249 -350
-342 -197 -235 -358 -545 -429 -824 -49 -194 -60 -286 -59 -500 0 -270 27
-433 108 -665 86 -249 213 -469 396 -686 76 -91 76 -93 89 -174 38 -247 -42
-519 -214 -725 -89 -106 -101 -144 -68 -217 16 -36 29 -50 68 -68 47 -23 50
-24 188 -12 378 32 685 164 987 422 l36 31 114 -35 c486 -152 1038 -165 1547
-37 847 214 1526 813 1765 1556 176 550 108 1126 -193 1635 -169 287 -446 573
-740 766 -516 338 -1163 498 -1790 443z m-849 -1799 c235 -45 399 -275 361
-506 -32 -196 -180 -344 -376 -376 -289 -48 -556 219 -508 508 42 252 277 420
523 374z m1200 0 c235 -45 399 -275 361 -506 -32 -196 -180 -344 -376 -376
-289 -48 -556 219 -508 508 42 252 277 420 523 374z m1200 0 c235 -45 399
-275 361 -506 -32 -196 -180 -344 -376 -376 -289 -48 -556 219 -508 508 42
252 277 420 523 374z"/>
</g>
</svg>
